<!-- icon666.com - MILLIONS vector ICONS FREE --><svg viewBox="0 0 64 64" xmlns="http://www.w3.org/2000/svg"><rect fill="#fab400" height="52" rx="26" width="52" x="6" y="6"></rect><path d="m10 32a26 26 0 0 1 24-25.916c-.661-.05-1.326-.084-2-.084a26 26 0 0 0 -26 26 26 26 0 0 0 26 26c.674 0 1.339-.034 2-.084a26 26 0 0 1 -24-25.916z" fill="#dc9600"></path><path d="m21 32h22v12h-22z" fill="#f0f0f0"></path><path d="m38 20h6v2h-6z" fill="#64c8f0"></path><path d="m39 22h4v8h-4z" fill="#46aad2"></path><path d="m32 20-16 12h32z" fill="#64c8f0"></path><path d="m21 32h2v12h-2z" fill="#d2d2d2"></path><path d="m32 20-16 12h2l15-11.25z" fill="#46aad2"></path><path d="m29 38h6v6h-6z" fill="#505050"></path></svg>